HIERARCHY
ROOT Hips
{
	OFFSET 0.000000 0.000000 0.000000
	CHANNELS 6 Xposition Yposition Zposition Yrotation Xrotation Zrotation
	JOINT Spine
	{
		OFFSET 0.000000 -0.744707 -0.000000
		CHANNELS 6 Xposition Yposition Zposition Yrotation Xrotation Zrotation
		JOINT Spine1
		{
			OFFSET 0.000000 -2.032240 -0.000000
			CHANNELS 6 Xposition Yposition Zposition Yrotation Xrotation Zrotation
			JOINT Neck
			{
				OFFSET 0.000000 -2.213880 -0.000000
				CHANNELS 6 Xposition Yposition Zposition Yrotation Xrotation Zrotation
				JOINT Head
				{
					OFFSET 0.000000 -1.407680 -0.181636
					CHANNELS 6 Xposition Yposition Zposition Yrotation Xrotation Zrotation
					End Site
					{
						OFFSET 0.000000 -1.816356 -0.000000
					}
				}
			}
			JOINT LeftShoulder
			{
				OFFSET 0.365767 -1.787590 0.048012
				CHANNELS 6 Xposition Yposition Zposition Yrotation Xrotation Zrotation
				JOINT LeftArm
				{
					OFFSET 1.305160 0.000000 0.000000
					CHANNELS 6 Xposition Yposition Zposition Yrotation Xrotation Zrotation
					JOINT LeftForeArm
					{
						OFFSET 2.559210 0.000000 0.000000
						CHANNELS 6 Xposition Yposition Zposition Yrotation Xrotation Zrotation
						JOINT LeftHand
						{
							OFFSET 2.378450 0.000000 0.000000
							CHANNELS 6 Xposition Yposition Zposition Yrotation Xrotation Zrotation
							End Site
							{
								OFFSET 1.362267 0.000000 0.000000
							}
						}
					}
				}
			}
			JOINT RightShoulder
			{
				OFFSET -0.360721 -1.787590 0.048012
				CHANNELS 6 Xposition Yposition Zposition Yrotation Xrotation Zrotation
				JOINT RightArm
				{
					OFFSET -1.305160 0.000000 0.000000
					CHANNELS 6 Xposition Yposition Zposition Yrotation Xrotation Zrotation
					JOINT RightForeArm
					{
						OFFSET -2.559210 0.000000 0.000000
						CHANNELS 6 Xposition Yposition Zposition Yrotation Xrotation Zrotation
						JOINT RightHand
						{
							OFFSET -2.378450 0.000000 0.000000
							CHANNELS 6 Xposition Yposition Zposition Yrotation Xrotation Zrotation
							End Site
							{
								OFFSET -1.362267 0.000000 0.000000
							}
						}
					}
				}
			}
		}
	}
	JOINT LeftUpLeg
	{
		OFFSET 0.908180 0.000000 0.000000
		CHANNELS 6 Xposition Yposition Zposition Yrotation Xrotation Zrotation
		JOINT LeftLeg
		{
			OFFSET 0.000000 3.819490 0.000002
			CHANNELS 6 Xposition Yposition Zposition Yrotation Xrotation Zrotation
			JOINT LeftFoot
			{
				OFFSET 0.000000 4.004300 0.000002
				CHANNELS 6 Xposition Yposition Zposition Yrotation Xrotation Zrotation
				JOINT LeftToeBase
				{
					OFFSET 0.000000 0.590317 -1.362270
					CHANNELS 6 Xposition Yposition Zposition Yrotation Xrotation Zrotation
					End Site
					{
						OFFSET 0.000000 0.000000 -0.363271
					}
				}
			}
		}
	}
	JOINT RightUpLeg
	{
		OFFSET -0.908180 0.000000 0.000000
		CHANNELS 6 Xposition Yposition Zposition Yrotation Xrotation Zrotation
		JOINT RightLeg
		{
			OFFSET 0.000000 3.819490 0.000002
			CHANNELS 6 Xposition Yposition Zposition Yrotation Xrotation Zrotation
			JOINT RightFoot
			{
				OFFSET 0.000000 4.004300 0.000002
				CHANNELS 6 Xposition Yposition Zposition Yrotation Xrotation Zrotation
				JOINT RightToeBase
				{
					OFFSET 0.000000 0.590317 -1.362270
					CHANNELS 6 Xposition Yposition Zposition Yrotation Xrotation Zrotation
					End Site
					{
						OFFSET 0.000000 0.000000 -0.363271
					}
				}
			}
		}
	}
}
MOTION
Frames: 9
Frame Time: 0.016667
-1.660254 -7.952991 -1.982769 2.574262 7.387490 0.659341 -0.000000 -0.744707 -0.000000 -11.574606 -21.485397 5.798348 0.000000 -2.032239 -0.000000 -5.561169 20.883985 -11.185963 0.000000 -2.213881 -0.000000 2.244892 0.468342 -7.018648 0.000000 -1.407681 -0.181636 1.341050 7.368830 1.428941 0.365767 -1.787591 0.048012 -0.709645 -2.997897 -13.393593 1.305160 0.000001 -0.000000 13.175782 3.036354 48.707646 2.559210 0.000002 -0.000000 78.187791 -8.099563 -31.245896 2.378450 0.000000 -0.000001 -20.097340 -34.166385 -9.952070 -0.360721 -1.787590 0.048012 -7.888482 -4.459747 7.991290 -1.305160 0.000001 -0.000000 -36.537827 -15.407573 -43.278162 -2.559209 -0.000000 -0.000001 -79.538728 36.876632 58.683940 -2.378449 0.000001 -0.000000 0.687291 -18.440498 56.572008 0.908180 0.000001 -0.000000 -1.894517 -9.050680 -0.920581 -0.000000 3.819490 0.000001 -5.023893 10.451527 -3.277412 0.000000 4.004299 0.000001 -22.023443 -4.743368 -1.669753 0.000000 0.590316 -1.362270 0.000001 -0.000000 -0.000001 -0.908180 0.000001 -0.000000 -7.117989 -18.725085 19.252642 -0.000000 3.819489 0.000001 -16.422946 19.852293 -11.138955 -0.000000 4.004299 0.000000 47.860201 1.403146 -3.182212 -0.000001 0.590318 -1.362269 0.000003 0.000003 0.000003 
-1.642591 -7.954000 -1.976745 2.727956 7.366377 0.680491 -0.000000 -0.744707 0.000000 -11.403187 -21.446649 5.642899 0.000000 -2.032238 -0.000001 -5.466610 20.812473 -10.967394 -0.000000 -2.213881 -0.000000 2.001117 0.689485 -7.200114 0.000000 -1.407682 -0.181636 1.057509 7.185272 1.650412 0.365767 -1.787592 0.048012 -0.375712 -3.214042 -13.329612 1.305161 0.000001 -0.000000 12.175823 1.083069 48.187333 2.559210 0.000002 -0.000000 77.875932 -7.861036 -32.100339 2.378450 0.000001 -0.000001 -19.710452 -34.905866 -13.017020 -0.360721 -1.787591 0.048012 -7.769235 -4.294554 7.917260 -1.305161 0.000002 -0.000000 -36.429996 -15.616541 -43.819850 -2.559209 0.000001 0.000000 -79.699722 36.959574 58.171608 -2.378449 0.000000 0.000001 0.873695 -17.942716 56.656334 0.908180 0.000000 0.000000 -1.934206 -9.131074 -0.820509 0.000000 3.819491 0.000001 -5.353507 10.583333 -3.312266 0.000000 4.004299 0.000001 -21.817967 -4.796931 -1.710655 0.000000 0.590316 -1.362270 0.000003 0.000001 -0.000000 -0.908180 0.000001 0.000000 -7.534648 -18.840167 19.232474 0.000000 3.819490 0.000002 -15.977641 20.286808 -11.364753 -0.000000 4.004300 0.000001 47.970935 0.520065 -3.251430 -0.000001 0.590316 -1.362270 0.000003 0.000004 0.000001 
-1.626782 -7.955176 -1.970095 2.857175 7.312683 0.713207 0.000000 -0.744706 -0.000000 -11.177588 -21.366894 5.487209 -0.000000 -2.032239 0.000000 -5.362214 20.749859 -10.783585 0.000000 -2.213879 -0.000000 1.722787 0.913277 -7.326373 0.000000 -1.407678 -0.181636 0.747793 6.975552 1.831397 0.365767 -1.787588 0.048012 -0.006503 -3.525585 -13.291196 1.305160 0.000000 0.000000 11.356217 -0.518565 47.708472 2.559211 0.000000 -0.000000 77.601659 -7.627293 -33.132739 2.378449 -0.000000 -0.000000 -19.265858 -35.772153 -16.105820 -0.360721 -1.787591 0.048012 -7.707898 -4.175234 7.878849 -1.305160 -0.000000 -0.000000 -36.479470 -15.537096 -44.355552 -2.559210 -0.000001 -0.000001 -79.511106 37.059049 58.039451 -2.378452 0.000002 -0.000001 1.064661 -17.534424 56.849188 0.908180 0.000001 -0.000000 -1.814094 -9.213964 -0.871154 -0.000000 3.819491 0.000002 -5.330957 10.824548 -3.090858 0.000000 4.004300 0.000001 -22.026469 -4.915449 -1.817106 0.000000 0.590316 -1.362270 0.000005 -0.000000 0.000000 -0.908180 0.000000 -0.000000 -7.964455 -18.886354 19.172418 0.000000 3.819489 0.000002 -15.399788 20.699465 -11.508935 0.000000 4.004301 0.000001 47.942150 -0.144353 -3.465381 -0.000000 0.590316 -1.362271 0.000001 0.000001 0.000000 
-1.611688 -7.956424 -1.964397 2.971319 7.267785 0.748199 -0.000000 -0.744706 -0.000000 -10.916775 -21.308918 5.313705 -0.000000 -2.032242 -0.000001 -5.243376 20.686674 -10.580574 -0.000000 -2.213880 -0.000001 1.426880 1.155816 -7.486179 0.000000 -1.407683 -0.181636 0.411268 6.772703 2.095279 0.365767 -1.787590 0.048012 0.289510 -3.749713 -13.247484 1.305160 0.000001 -0.000000 10.572636 -2.196637 47.079818 2.559210 0.000000 0.000000 77.303869 -7.538620 -33.897689 2.378449 -0.000001 0.000000 -18.767570 -36.531526 -19.341267 -0.360721 -1.787591 0.048012 -7.607858 -3.974136 7.828830 -1.305160 0.000002 -0.000000 -36.572128 -15.519797 -44.816020 -2.559209 -0.000000 -0.000001 -79.443699 37.063803 57.735944 -2.378449 0.000001 -0.000000 1.113682 -17.081695 57.103236 0.908180 0.000001 0.000000 -1.828637 -9.309129 -0.885151 -0.000000 3.819491 0.000002 -5.295289 11.056955 -2.926261 -0.000000 4.004300 0.000001 -22.140611 -5.009049 -1.884267 -0.000000 0.590316 -1.362270 0.000002 0.000003 -0.000001 -0.908180 0.000000 0.000000 -8.367263 -18.893008 19.098975 0.000000 3.819489 0.000002 -15.262012 20.991615 -11.699857 -0.000000 4.004301 0.000001 47.939961 -0.696206 -3.511542 -0.000000 0.590316 -1.362271 0.000001 0.000004 0.000001 
-1.597036 -7.957080 -1.959502 3.084446 7.193519 0.777863 -0.000000 -0.744706 -0.000000 -10.637939 -21.195223 5.149832 0.000000 -2.032239 -0.000001 -5.119780 20.578306 -10.405120 0.000000 -2.213882 -0.000000 1.113116 1.395293 -7.648199 -0.000000 -1.407679 -0.181637 0.054240 6.605623 2.400435 0.365767 -1.787592 0.048012 0.615314 -4.017971 -13.249362 1.305161 0.000001 -0.000000 9.803397 -3.690894 46.439952 2.559211 -0.000000 0.000000 76.874462 -7.382933 -34.548637 2.378448 -0.000000 -0.000001 -18.277682 -37.045542 -22.405944 -0.360721 -1.787591 0.048012 -7.459345 -3.765096 7.749271 -1.305160 0.000003 -0.000000 -36.840084 -15.300812 -45.200498 -2.559211 -0.000000 -0.000001 -79.099512 37.130363 57.643955 -2.378448 0.000002 0.000001 1.465996 -16.679663 57.146110 0.908180 0.000002 -0.000000 -1.997719 -9.362804 -0.839607 -0.000000 3.819491 0.000002 -5.426134 11.246368 -2.882744 0.000000 4.004298 0.000001 -21.962511 -5.101315 -1.950542 -0.000000 0.590316 -1.362270 -0.000000 0.000004 -0.000000 -0.908180 0.000002 -0.000000 -8.713993 -18.879218 19.014118 0.000000 3.819488 0.000001 -15.200034 21.289015 -12.008777 0.000000 4.004301 0.000001 47.982868 -1.371904 -3.542579 -0.000001 0.590317 -1.362269 0.000003 0.000004 -0.000000 
-1.583374 -7.957637 -1.955320 3.178139 7.115693 0.795502 -0.000000 -0.744706 0.000000 -10.325203 -21.102105 5.008045 0.000000 -2.032238 0.000000 -4.994735 20.510279 -10.271404 0.000000 -2.213883 -0.000000 0.777037 1.616037 -7.742564 -0.000000 -1.407679 -0.181637 -0.317431 6.445626 2.674025 0.365767 -1.787592 0.048012 0.921236 -4.282158 -13.225516 1.305160 0.000001 -0.000000 9.295402 -4.884586 45.712909 2.559209 0.000001 0.000000 76.350669 -7.183553 -35.382535 2.378449 -0.000001 -0.000001 -17.381431 -37.587054 -26.012564 -0.360721 -1.787592 0.048012 -7.400757 -3.586222 7.740088 -1.305161 -0.000001 0.000000 -37.189062 -14.998978 -45.523197 -2.559209 0.000000 -0.000001 -78.557851 37.159026 57.766441 -2.378452 0.000000 0.000001 1.605515 -16.280371 57.541625 0.908180 0.000001 0.000000 -2.219239 -9.428382 -0.745569 0.000000 3.819490 0.000001 -5.623708 11.448980 -2.940749 0.000000 4.004300 0.000001 -21.674781 -5.170287 -1.947127 0.000000 0.590317 -1.362270 -0.000001 0.000003 0.000001 -0.908180 0.000002 -0.000000 -9.053513 -18.843683 18.932914 0.000000 3.819490 0.000001 -15.367837 21.460733 -12.236247 0.000000 4.004301 0.000001 47.962224 -1.878336 -3.192213 0.000000 0.590317 -1.362270 -0.000003 0.000003 -0.000000 
-1.570978 -7.957819 -1.951319 3.266457 7.072507 0.799874 -0.000000 -0.744706 -0.000000 -10.022057 -21.031544 4.885152 0.000000 -2.032238 0.000000 -4.866080 20.418555 -10.119470 0.000000 -2.213882 -0.000000 0.472467 1.877178 -7.927455 0.000000 -1.407684 -0.181636 -0.675759 6.259146 3.117684 0.365767 -1.787591 0.048012 1.239555 -4.571216 -13.259334 1.305160 -0.000001 -0.000000 8.766212 -5.997245 44.889342 2.559208 0.000001 0.000000 75.602121 -6.919909 -35.931405 2.378450 -0.000001 -0.000001 -16.289272 -37.707285 -29.851209 -0.360721 -1.787591 0.048012 -7.346791 -3.435189 7.691089 -1.305160 0.000001 -0.000000 -37.362129 -14.632325 -45.913481 -2.559210 -0.000000 -0.000001 -78.211663 37.211680 57.616600 -2.378450 0.000003 -0.000001 1.848186 -15.776716 57.828384 0.908180 0.000002 -0.000000 -2.294674 -9.507295 -0.752585 -0.000000 3.819491 0.000002 -5.708991 11.660127 -2.790212 0.000000 4.004300 0.000001 -21.587399 -5.283207 -2.014039 -0.000000 0.590318 -1.362270 0.000003 0.000002 -0.000000 -0.908180 0.000002 -0.000000 -9.332927 -18.849749 18.828164 0.000000 3.819490 0.000001 -16.082374 21.652393 -12.668857 0.000000 4.004299 0.000001 48.219155 -2.618274 -2.807314 0.000001 0.590316 -1.362270 0.000002 0.000003 -0.000002 
-1.559341 -7.957623 -1.947052 3.352867 7.053673 0.803280 0.000000 -0.744707 -0.000000 -9.733752 -20.946585 4.799717 0.000000 -2.032238 -0.000000 -4.745955 20.265607 -10.028787 0.000000 -2.213881 -0.000000 0.155396 2.120604 -8.057515 0.000000 -1.407678 -0.181636 -1.037943 6.111245 3.515612 0.365767 -1.787591 0.048012 1.576412 -4.859604 -13.315330 1.305160 -0.000000 0.000000 8.289392 -6.947547 44.036408 2.559210 -0.000001 0.000000 74.694402 -6.585301 -36.436088 2.378449 -0.000001 -0.000002 -15.335014 -37.581507 -33.166900 -0.360721 -1.787591 0.048012 -7.216381 -3.192291 7.676317 -1.305160 0.000000 -0.000000 -37.685893 -14.180082 -46.233561 -2.559211 0.000000 -0.000001 -77.822383 37.242539 57.563147 -2.378450 0.000002 -0.000000 2.125197 -15.394946 57.896399 0.908180 0.000001 -0.000000 -2.371749 -9.627418 -0.774284 0.000000 3.819490 0.000002 -5.675056 11.928332 -2.624400 0.000000 4.004298 0.000002 -21.531027 -5.418414 -2.086266 -0.000000 0.590316 -1.362269 -0.000001 -0.000000 0.000001 -0.908180 0.000001 -0.000000 -9.620094 -18.886875 18.735854 0.000000 3.819490 0.000001 -16.885662 21.780515 -13.049202 -0.000001 4.004300 0.000001 48.469983 -3.215845 -2.661740 -0.000000 0.590316 -1.362270 0.000002 0.000006 0.000000 
-1.548185 -7.956625 -1.943811 3.420248 7.027527 0.781559 0.000000 -0.744706 -0.000000 -9.437033 -20.867310 4.761291 -0.000000 -2.032239 -0.000000 -4.631894 20.132841 -9.993645 0.000000 -2.213880 -0.000000 -0.183875 2.364011 -8.165396 0.000000 -1.407679 -0.181636 -1.420441 5.949240 3.907587 0.365767 -1.787589 0.048012 1.836489 -5.096704 -13.352660 1.305160 0.000000 0.000000 7.974060 -7.814352 43.057461 2.559209 0.000000 0.000000 73.500909 -6.143122 -36.821844 2.378448 0.000000 -0.000001 -14.182397 -37.128058 -37.110620 -0.360721 -1.787589 0.048012 -7.101364 -2.988177 7.651439 -1.305161 -0.000000 -0.000001 -38.023895 -13.598686 -46.481206 -2.559211 -0.000000 -0.000000 -77.328287 37.277393 57.572477 -2.378451 0.000001 -0.000001 2.407587 -14.980048 57.915032 0.908180 0.000001 0.000000 -2.624731 -9.745059 -0.719325 0.000000 3.819489 0.000002 -5.643223 12.188115 -2.519761 0.000000 4.004300 0.000002 -21.409899 -5.565529 -2.046184 0.000000 0.590317 -1.362269 -0.000001 0.000002 -0.000001 -0.908180 0.000001 -0.000000 -9.760787 -19.021006 18.611530 0.000001 3.819490 0.000002 -17.746332 22.043083 -13.367492 -0.000001 4.004302 0.000000 48.603438 -3.673539 -2.466528 0.000000 0.590316 -1.362270 -0.000002 -0.000000 -0.000001 
